<mxfile host="app.diagrams.net" modified="2023-11-03T10:55:08.211Z" agent="Mozilla/5.0 (Windows NT 10.0; Win64; x64; rv:109.0) Gecko/20100101 Firefox/119.0" etag="F7_PuLKTxqgnWWKtsNB2" version="22.0.8" type="github">
  <diagram id="C5RBs43oDa-KdzZeNtuy" name="Page-1">
    <mxGraphModel dx="916" dy="713" grid="1" gridSize="10" guides="1" tooltips="1" connect="1" arrows="1" fold="1" page="1" pageScale="1" pageWidth="827" pageHeight="1169" math="0" shadow="0">
      <root>
        <mxCell id="WIyWlLk6GJQsqaUBKTNV-0" />
        <mxCell id="WIyWlLk6GJQsqaUBKTNV-1" parent="WIyWlLk6GJQsqaUBKTNV-0" />
        <mxCell id="WIyWlLk6GJQsqaUBKTNV-2" value="" style="rounded=0;html=1;jettySize=auto;orthogonalLoop=1;fontSize=11;endArrow=block;endFill=0;endSize=8;strokeWidth=1;shadow=0;labelBackgroundColor=none;edgeStyle=orthogonalEdgeStyle;" parent="WIyWlLk6GJQsqaUBKTNV-1" source="WIyWlLk6GJQsqaUBKTNV-3" target="Cbd13kl901ZRLAZ7wrqw-3" edge="1">
          <mxGeometry relative="1" as="geometry">
            <mxPoint x="410" y="130" as="targetPoint" />
          </mxGeometry>
        </mxCell>
        <mxCell id="WIyWlLk6GJQsqaUBKTNV-3" value="START" style="rounded=1;whiteSpace=wrap;html=1;fontSize=12;glass=0;strokeWidth=1;shadow=0;" parent="WIyWlLk6GJQsqaUBKTNV-1" vertex="1">
          <mxGeometry x="340" y="10" width="120" height="40" as="geometry" />
        </mxCell>
        <mxCell id="Cbd13kl901ZRLAZ7wrqw-3" value="Generate a random word" style="rounded=1;whiteSpace=wrap;html=1;" vertex="1" parent="WIyWlLk6GJQsqaUBKTNV-1">
          <mxGeometry x="280" y="70" width="240" height="30" as="geometry" />
        </mxCell>
        <mxCell id="Cbd13kl901ZRLAZ7wrqw-4" value="Generate as many blanks as letters in word" style="rounded=1;whiteSpace=wrap;html=1;" vertex="1" parent="WIyWlLk6GJQsqaUBKTNV-1">
          <mxGeometry x="267.5" y="140" width="265" height="30" as="geometry" />
        </mxCell>
        <mxCell id="Cbd13kl901ZRLAZ7wrqw-7" value="" style="endArrow=classic;html=1;rounded=0;exitX=0.5;exitY=1;exitDx=0;exitDy=0;" edge="1" parent="WIyWlLk6GJQsqaUBKTNV-1" source="Cbd13kl901ZRLAZ7wrqw-3" target="Cbd13kl901ZRLAZ7wrqw-4">
          <mxGeometry width="50" height="50" relative="1" as="geometry">
            <mxPoint x="390" y="370" as="sourcePoint" />
            <mxPoint x="420" y="220" as="targetPoint" />
          </mxGeometry>
        </mxCell>
        <mxCell id="Cbd13kl901ZRLAZ7wrqw-8" value="" style="endArrow=classic;html=1;rounded=0;" edge="1" parent="WIyWlLk6GJQsqaUBKTNV-1" source="Cbd13kl901ZRLAZ7wrqw-4" target="Cbd13kl901ZRLAZ7wrqw-9">
          <mxGeometry width="50" height="50" relative="1" as="geometry">
            <mxPoint x="390" y="370" as="sourcePoint" />
            <mxPoint x="440" y="320" as="targetPoint" />
          </mxGeometry>
        </mxCell>
        <mxCell id="Cbd13kl901ZRLAZ7wrqw-15" style="edgeStyle=orthogonalEdgeStyle;rounded=0;orthogonalLoop=1;jettySize=auto;html=1;exitX=0.5;exitY=1;exitDx=0;exitDy=0;" edge="1" parent="WIyWlLk6GJQsqaUBKTNV-1" source="Cbd13kl901ZRLAZ7wrqw-9" target="Cbd13kl901ZRLAZ7wrqw-14">
          <mxGeometry relative="1" as="geometry" />
        </mxCell>
        <mxCell id="Cbd13kl901ZRLAZ7wrqw-9" value="Ask the user to guess a letter" style="rounded=1;whiteSpace=wrap;html=1;" vertex="1" parent="WIyWlLk6GJQsqaUBKTNV-1">
          <mxGeometry x="230" y="200" width="340" height="30" as="geometry" />
        </mxCell>
        <mxCell id="Cbd13kl901ZRLAZ7wrqw-16" style="edgeStyle=orthogonalEdgeStyle;rounded=0;orthogonalLoop=1;jettySize=auto;html=1;exitX=0;exitY=0.5;exitDx=0;exitDy=0;" edge="1" parent="WIyWlLk6GJQsqaUBKTNV-1" source="Cbd13kl901ZRLAZ7wrqw-14" target="Cbd13kl901ZRLAZ7wrqw-20">
          <mxGeometry relative="1" as="geometry">
            <mxPoint x="240" y="440" as="targetPoint" />
          </mxGeometry>
        </mxCell>
        <mxCell id="Cbd13kl901ZRLAZ7wrqw-17" style="edgeStyle=orthogonalEdgeStyle;rounded=0;orthogonalLoop=1;jettySize=auto;html=1;exitX=1;exitY=0.5;exitDx=0;exitDy=0;" edge="1" parent="WIyWlLk6GJQsqaUBKTNV-1" source="Cbd13kl901ZRLAZ7wrqw-14" target="Cbd13kl901ZRLAZ7wrqw-21">
          <mxGeometry relative="1" as="geometry">
            <mxPoint x="560" y="440" as="targetPoint" />
          </mxGeometry>
        </mxCell>
        <mxCell id="Cbd13kl901ZRLAZ7wrqw-14" value="Is the guessed letter in the word?" style="rhombus;whiteSpace=wrap;html=1;" vertex="1" parent="WIyWlLk6GJQsqaUBKTNV-1">
          <mxGeometry x="285" y="270" width="230" height="80" as="geometry" />
        </mxCell>
        <mxCell id="Cbd13kl901ZRLAZ7wrqw-18" value="No" style="text;html=1;align=center;verticalAlign=middle;resizable=0;points=[];autosize=1;strokeColor=none;fillColor=none;" vertex="1" parent="WIyWlLk6GJQsqaUBKTNV-1">
          <mxGeometry x="560" y="368" width="40" height="30" as="geometry" />
        </mxCell>
        <mxCell id="Cbd13kl901ZRLAZ7wrqw-19" value="Yes" style="text;html=1;align=center;verticalAlign=middle;resizable=0;points=[];autosize=1;strokeColor=none;fillColor=none;" vertex="1" parent="WIyWlLk6GJQsqaUBKTNV-1">
          <mxGeometry x="200" y="368" width="40" height="30" as="geometry" />
        </mxCell>
        <mxCell id="Cbd13kl901ZRLAZ7wrqw-27" style="edgeStyle=orthogonalEdgeStyle;rounded=0;orthogonalLoop=1;jettySize=auto;html=1;exitX=0.5;exitY=1;exitDx=0;exitDy=0;" edge="1" parent="WIyWlLk6GJQsqaUBKTNV-1" source="Cbd13kl901ZRLAZ7wrqw-20" target="Cbd13kl901ZRLAZ7wrqw-24">
          <mxGeometry relative="1" as="geometry" />
        </mxCell>
        <mxCell id="Cbd13kl901ZRLAZ7wrqw-20" value="Replace the blank with a letter" style="rounded=1;whiteSpace=wrap;html=1;" vertex="1" parent="WIyWlLk6GJQsqaUBKTNV-1">
          <mxGeometry x="170" y="410" width="150" height="40" as="geometry" />
        </mxCell>
        <mxCell id="Cbd13kl901ZRLAZ7wrqw-26" style="edgeStyle=orthogonalEdgeStyle;rounded=0;orthogonalLoop=1;jettySize=auto;html=1;exitX=0.5;exitY=1;exitDx=0;exitDy=0;" edge="1" parent="WIyWlLk6GJQsqaUBKTNV-1" source="Cbd13kl901ZRLAZ7wrqw-21" target="Cbd13kl901ZRLAZ7wrqw-25">
          <mxGeometry relative="1" as="geometry" />
        </mxCell>
        <mxCell id="Cbd13kl901ZRLAZ7wrqw-21" value="Lose a life" style="rounded=1;whiteSpace=wrap;html=1;" vertex="1" parent="WIyWlLk6GJQsqaUBKTNV-1">
          <mxGeometry x="500" y="410" width="120" height="30" as="geometry" />
        </mxCell>
        <mxCell id="Cbd13kl901ZRLAZ7wrqw-30" style="edgeStyle=orthogonalEdgeStyle;rounded=0;orthogonalLoop=1;jettySize=auto;html=1;exitX=0;exitY=0.5;exitDx=0;exitDy=0;entryX=0;entryY=0.5;entryDx=0;entryDy=0;" edge="1" parent="WIyWlLk6GJQsqaUBKTNV-1" source="Cbd13kl901ZRLAZ7wrqw-24" target="Cbd13kl901ZRLAZ7wrqw-9">
          <mxGeometry relative="1" as="geometry" />
        </mxCell>
        <mxCell id="Cbd13kl901ZRLAZ7wrqw-24" value="Are all the blanks filled?" style="rhombus;whiteSpace=wrap;html=1;" vertex="1" parent="WIyWlLk6GJQsqaUBKTNV-1">
          <mxGeometry x="132.5" y="500" width="225" height="80" as="geometry" />
        </mxCell>
        <mxCell id="Cbd13kl901ZRLAZ7wrqw-28" style="edgeStyle=orthogonalEdgeStyle;rounded=0;orthogonalLoop=1;jettySize=auto;html=1;exitX=1;exitY=0.5;exitDx=0;exitDy=0;entryX=1;entryY=0.5;entryDx=0;entryDy=0;" edge="1" parent="WIyWlLk6GJQsqaUBKTNV-1" source="Cbd13kl901ZRLAZ7wrqw-25" target="Cbd13kl901ZRLAZ7wrqw-9">
          <mxGeometry relative="1" as="geometry" />
        </mxCell>
        <mxCell id="Cbd13kl901ZRLAZ7wrqw-25" value="Have they run out of lives?" style="rhombus;whiteSpace=wrap;html=1;" vertex="1" parent="WIyWlLk6GJQsqaUBKTNV-1">
          <mxGeometry x="462.5" y="500" width="195" height="80" as="geometry" />
        </mxCell>
        <mxCell id="Cbd13kl901ZRLAZ7wrqw-29" value="NO" style="text;html=1;align=center;verticalAlign=middle;resizable=0;points=[];autosize=1;strokeColor=none;fillColor=none;" vertex="1" parent="WIyWlLk6GJQsqaUBKTNV-1">
          <mxGeometry x="670" y="500" width="40" height="30" as="geometry" />
        </mxCell>
        <mxCell id="Cbd13kl901ZRLAZ7wrqw-32" value="Yes" style="text;html=1;align=center;verticalAlign=middle;resizable=0;points=[];autosize=1;strokeColor=none;fillColor=none;" vertex="1" parent="WIyWlLk6GJQsqaUBKTNV-1">
          <mxGeometry x="70" y="498" width="40" height="30" as="geometry" />
        </mxCell>
        <mxCell id="Cbd13kl901ZRLAZ7wrqw-34" value="" style="endArrow=none;html=1;rounded=0;exitX=0.5;exitY=1;exitDx=0;exitDy=0;entryX=0.5;entryY=1;entryDx=0;entryDy=0;" edge="1" parent="WIyWlLk6GJQsqaUBKTNV-1" source="Cbd13kl901ZRLAZ7wrqw-24" target="Cbd13kl901ZRLAZ7wrqw-25">
          <mxGeometry width="50" height="50" relative="1" as="geometry">
            <mxPoint x="390" y="410" as="sourcePoint" />
            <mxPoint x="390" y="630" as="targetPoint" />
            <Array as="points">
              <mxPoint x="400" y="620" />
            </Array>
          </mxGeometry>
        </mxCell>
        <mxCell id="Cbd13kl901ZRLAZ7wrqw-35" value="" style="endArrow=classic;html=1;rounded=0;" edge="1" parent="WIyWlLk6GJQsqaUBKTNV-1" target="Cbd13kl901ZRLAZ7wrqw-36">
          <mxGeometry width="50" height="50" relative="1" as="geometry">
            <mxPoint x="400" y="620" as="sourcePoint" />
            <mxPoint x="400" y="660" as="targetPoint" />
          </mxGeometry>
        </mxCell>
        <mxCell id="Cbd13kl901ZRLAZ7wrqw-36" value="GAME OVER" style="rounded=1;whiteSpace=wrap;html=1;" vertex="1" parent="WIyWlLk6GJQsqaUBKTNV-1">
          <mxGeometry x="340" y="650" width="120" height="60" as="geometry" />
        </mxCell>
        <mxCell id="Cbd13kl901ZRLAZ7wrqw-37" value="YES" style="text;html=1;align=center;verticalAlign=middle;resizable=0;points=[];autosize=1;strokeColor=none;fillColor=none;" vertex="1" parent="WIyWlLk6GJQsqaUBKTNV-1">
          <mxGeometry x="295" y="578" width="50" height="30" as="geometry" />
        </mxCell>
        <mxCell id="Cbd13kl901ZRLAZ7wrqw-38" value="YES" style="text;html=1;align=center;verticalAlign=middle;resizable=0;points=[];autosize=1;strokeColor=none;fillColor=none;" vertex="1" parent="WIyWlLk6GJQsqaUBKTNV-1">
          <mxGeometry x="445" y="578" width="50" height="30" as="geometry" />
        </mxCell>
      </root>
    </mxGraphModel>
  </diagram>
</mxfile>
